<svg xmlns="http://www.w3.org/2000/svg" xmlns:xlink="http://www.w3.org/1999/xlink" width="1080" zoomAndPan="magnify" viewBox="0 0 810 1012.49997" height="1350" preserveAspectRatio="xMidYMid meet" version="1.0"><defs><clipPath id="8405cfbf13"><path d="M 186 244.347656 L 624 244.347656 L 624 767.589844 L 186 767.589844 Z M 186 244.347656 " clip-rule="nonzero"/></clipPath></defs><g clip-path="url(#8405cfbf13)"><path fill="#000000" d="M 492.175781 484.164062 C 492.175781 436.070312 453.0625 396.957031 404.96875 396.957031 C 356.871094 396.957031 317.761719 436.070312 317.761719 484.164062 C 317.761719 532.261719 356.871094 571.371094 404.96875 571.371094 C 453.0625 571.371094 492.175781 532.261719 492.175781 484.164062 Z M 557.578125 723.984375 L 557.578125 767.589844 L 492.175781 767.589844 L 492.175781 723.984375 C 492.175781 699.9375 472.617188 680.382812 448.570312 680.382812 L 361.363281 680.382812 C 337.316406 680.382812 317.761719 699.9375 317.761719 723.984375 L 317.761719 767.589844 L 252.355469 767.589844 L 252.355469 723.984375 C 252.355469 663.878906 301.257812 614.976562 361.363281 614.976562 L 448.570312 614.976562 C 508.679688 614.976562 557.578125 663.878906 557.578125 723.984375 Z M 584.898438 562.238281 L 623.8125 587.570312 L 588.125 642.402344 C 588.125 642.402344 524.199219 588.050781 495.117188 578.71875 C 520.101562 554.890625 535.753906 521.359375 535.753906 484.1875 C 535.753906 412.046875 477.085938 353.375 404.945312 353.375 C 332.804688 353.375 274.136719 412.046875 274.136719 484.1875 C 274.136719 521.359375 289.789062 554.890625 314.773438 578.71875 L 221.765625 642.402344 L 186.078125 587.570312 L 225.015625 562.238281 C 214.59375 538.300781 208.730469 511.917969 208.730469 484.164062 C 208.730469 456.410156 214.59375 430.054688 225.015625 406.09375 L 186.078125 380.761719 L 221.765625 325.929688 L 260.878906 351.371094 C 289.722656 320.105469 328.507812 298.261719 372.222656 290.871094 L 372.222656 244.347656 L 437.625 244.347656 L 437.625 290.894531 C 481.359375 298.285156 520.125 320.105469 548.96875 351.394531 L 588.078125 325.949219 L 623.769531 380.78125 L 584.851562 406.113281 C 595.273438 430.054688 601.140625 456.433594 601.140625 484.1875 C 601.140625 511.941406 595.273438 538.300781 584.851562 562.257812 Z M 584.898438 562.238281 " fill-opacity="1" fill-rule="nonzero"/></g></svg>