<svg xmlns="http://www.w3.org/2000/svg" xmlns:xlink="http://www.w3.org/1999/xlink" width="1080" zoomAndPan="magnify" viewBox="0 0 810 1012.49997" height="1350" preserveAspectRatio="xMidYMid meet" version="1.0"><defs><clipPath id="7bf785df79"><path d="M 243 312.5625 L 567 312.5625 L 567 699.371094 L 243 699.371094 Z M 243 312.5625 " clip-rule="nonzero"/></clipPath></defs><g clip-path="url(#7bf785df79)"><path fill="#000000" d="M 469.433594 489.851562 C 469.433594 454.296875 440.519531 425.382812 404.96875 425.382812 C 369.414062 425.382812 340.5 454.296875 340.5 489.851562 C 340.5 525.402344 369.414062 554.316406 404.96875 554.316406 C 440.519531 554.316406 469.433594 525.402344 469.433594 489.851562 Z M 517.785156 667.136719 L 517.785156 699.371094 L 469.433594 699.371094 L 469.433594 667.136719 C 469.433594 649.359375 454.976562 634.902344 437.199219 634.902344 L 372.734375 634.902344 C 354.957031 634.902344 340.5 649.359375 340.5 667.136719 L 340.5 699.371094 L 292.148438 699.371094 L 292.148438 667.136719 C 292.148438 622.703125 328.296875 586.550781 372.734375 586.550781 L 437.199219 586.550781 C 481.636719 586.550781 517.785156 622.703125 517.785156 667.136719 Z M 537.980469 547.566406 L 566.75 566.292969 L 540.367188 606.828125 C 540.367188 606.828125 493.109375 566.648438 471.609375 559.75 C 490.082031 542.132812 501.652344 517.34375 501.652344 489.867188 C 501.652344 436.535156 458.28125 393.164062 404.949219 393.164062 C 351.621094 393.164062 308.25 436.535156 308.25 489.867188 C 308.25 517.34375 319.820312 542.132812 338.289062 559.75 L 269.535156 606.828125 L 243.152344 566.292969 L 271.9375 547.566406 C 264.234375 529.867188 259.898438 510.367188 259.898438 489.851562 C 259.898438 469.332031 264.234375 449.847656 271.9375 432.136719 L 243.152344 413.40625 L 269.535156 372.871094 L 298.449219 391.679688 C 319.773438 368.570312 348.445312 352.421875 380.757812 346.957031 L 380.757812 312.5625 L 429.109375 312.5625 L 429.109375 346.972656 C 461.441406 352.4375 490.097656 368.570312 511.421875 391.695312 L 540.332031 372.886719 L 566.71875 413.421875 L 537.949219 432.152344 C 545.652344 449.847656 549.988281 469.347656 549.988281 489.867188 C 549.988281 510.382812 545.652344 529.867188 537.949219 547.582031 Z M 537.980469 547.566406 " fill-opacity="1" fill-rule="nonzero"/></g></svg>