<svg xmlns="http://www.w3.org/2000/svg" xmlns:xlink="http://www.w3.org/1999/xlink" width="1080" zoomAndPan="magnify" viewBox="0 0 810 1012.49997" height="1350" preserveAspectRatio="xMidYMid meet" version="1.0"><defs><clipPath id="1bf3f37187"><path d="M 165 244.347656 L 645 244.347656 L 645 767.589844 L 165 767.589844 Z M 165 244.347656 " clip-rule="nonzero"/></clipPath></defs><g clip-path="url(#1bf3f37187)"><path fill="#000000" d="M 524.875 244.347656 L 285.058594 244.347656 C 218.824219 244.347656 165.148438 298.023438 165.148438 364.257812 L 165.148438 676.085938 C 168.613281 727.058594 211.410156 767.589844 263.253906 767.589844 L 524.875 767.589844 C 591 767.589844 644.785156 713.804688 644.785156 647.679688 L 644.785156 364.257812 C 644.785156 298.132812 591 244.347656 524.875 244.347656 Z M 230.554688 364.257812 C 230.554688 334.148438 254.949219 309.75 285.058594 309.75 L 295.957031 309.75 L 295.957031 571.371094 L 263.253906 571.371094 C 251.722656 571.371094 240.820312 573.726562 230.554688 577.390625 Z M 579.382812 647.679688 C 579.382812 677.722656 554.917969 702.183594 524.875 702.183594 L 263.253906 702.183594 C 220.261719 701.417969 220.304688 637.539062 263.253906 636.777344 L 579.382812 636.777344 Z M 579.382812 571.371094 L 361.363281 571.371094 L 361.363281 309.75 L 426.769531 309.75 L 426.769531 469.949219 C 426.769531 483.53125 444.015625 489.355469 452.253906 478.5625 L 481.273438 440.5625 L 510.292969 478.5625 C 518.53125 489.355469 535.777344 483.53125 535.777344 469.949219 L 535.777344 310.863281 C 560.632812 315.921875 579.382812 337.941406 579.382812 364.257812 Z M 579.382812 571.371094 " fill-opacity="1" fill-rule="nonzero"/></g></svg>