<svg xmlns="http://www.w3.org/2000/svg" xmlns:xlink="http://www.w3.org/1999/xlink" width="1080" zoomAndPan="magnify" viewBox="0 0 810 1012.49997" height="1350" preserveAspectRatio="xMidYMid meet" version="1.0"><defs><clipPath id="bf6b211b81"><path d="M 137.300781 238.300781 L 672.539062 238.300781 L 672.539062 773.539062 L 137.300781 773.539062 Z M 137.300781 238.300781 " clip-rule="nonzero"/></clipPath></defs><g clip-path="url(#bf6b211b81)"><path fill="#000000" d="M 338.015625 505.917969 C 411.8125 505.917969 471.824219 445.90625 471.824219 372.109375 C 471.824219 298.316406 411.8125 238.300781 338.015625 238.300781 C 264.21875 238.300781 204.207031 298.316406 204.207031 372.109375 C 204.207031 445.90625 264.21875 505.917969 338.015625 505.917969 Z M 338.015625 305.207031 C 374.902344 305.207031 404.917969 335.222656 404.917969 372.109375 C 404.917969 408.996094 374.902344 439.015625 338.015625 439.015625 C 301.128906 439.015625 271.109375 408.996094 271.109375 372.109375 C 271.109375 335.222656 301.128906 305.207031 338.015625 305.207031 Z M 658.285156 611.292969 L 496.042969 773.539062 L 427.222656 773.539062 L 427.222656 704.714844 L 589.464844 542.472656 C 608.464844 523.472656 639.285156 523.472656 658.285156 542.472656 C 677.289062 561.472656 677.289062 592.292969 658.285156 611.292969 Z M 427.222656 617.425781 L 248.808594 617.425781 C 224.210938 617.425781 204.207031 637.429688 204.207031 662.03125 L 204.207031 773.539062 L 137.300781 773.539062 L 137.300781 662.03125 C 137.300781 600.546875 187.324219 550.523438 248.808594 550.523438 L 427.222656 550.523438 C 452.757812 550.523438 476.039062 559.511719 494.863281 574.007812 L 446.734375 622.132812 C 440.804688 619.210938 434.246094 617.425781 427.199219 617.425781 Z M 427.222656 617.425781 " fill-opacity="1" fill-rule="nonzero"/></g></svg>